<svg width="65" height="65" viewBox="0 0 65 65" fill="none" xmlns="http://www.w3.org/2000/svg">
<path d="M32.253 0.209914C29.404 7.19421 27.674 11.7689 24.503 18.5459C26.447 20.6069 28.837 22.9989 32.714 25.7099C28.546 23.9949 25.705 22.2779 23.581 20.4909C19.522 28.9609 13.158 41.0219 0.252991 64.2099C10.393 58.3559 18.255 54.7439 25.581 53.3659C25.267 52.0149 25.1 50.5469 25.112 49.0219L25.12 48.7019C25.281 42.2039 28.662 37.2069 32.667 37.5459C36.671 37.8849 39.789 43.4299 39.628 49.9289C39.597 51.1529 39.455 52.3289 39.214 53.4209C46.461 54.8389 54.248 58.4339 64.253 64.2099C62.28 60.5779 60.513 57.3049 58.831 54.1859C56.182 52.1329 53.42 49.4619 47.784 46.5689C51.658 47.5759 54.434 48.7399 56.596 50.0379C39.498 18.2029 38.116 13.9699 32.253 0.209914V0.209824V0.209914Z" fill="white"/>
<path d="M50.266 38.249C36.394 19.422 33.179 4.247 32.364 0.624001C39.764 17.691 39.713 17.901 50.266 38.249Z" fill="white" fill-opacity="0.16568"/>
<path d="M32.378 0.459923C32.018 1.3444 31.678 2.20672 31.346 3.02242C30.982 3.91702 30.628 4.77892 30.284 5.61622C29.94 6.45352 29.591 7.24712 29.253 8.05372C28.914 8.86022 28.599 9.65762 28.253 10.46C27.907 11.262 27.527 12.073 27.159 12.897C26.791 13.722 26.407 14.555 26.003 15.429C25.599 16.302 25.175 17.23 24.721 18.179C24.66 18.307 24.597 18.455 24.534 18.585C26.473 20.639 28.864 23.012 32.721 25.71C28.554 23.995 25.721 22.278 23.596 20.491C23.486 20.717 23.398 20.916 23.284 21.147C22.864 22.018 22.413 22.88 21.94 23.835C21.827 24.059 21.744 24.262 21.628 24.491C21.127 25.495 20.602 26.534 20.034 27.647C19.921 27.867 19.806 28.049 19.69 28.272C19.347 28.939 18.25 31.042 17.128 33.179C16.473 34.427 15.959 35.449 15.221 36.835C15.012 37.233 14.582 38.03 14.471 38.241C22.596 33.668 31.362 27.025 47.284 32.71C46.487 31.2 45.722 29.791 45.034 28.46C44.346 27.128 43.722 25.889 43.128 24.71C42.534 23.531 41.985 22.419 41.471 21.366C40.958 20.313 40.482 19.319 40.034 18.366C39.586 17.413 39.149 16.496 38.753 15.616C38.356 14.737 37.987 13.886 37.628 13.054C37.269 12.221 36.933 11.396 36.596 10.585C36.26 9.77352 35.924 8.99542 35.596 8.17872C35.454 7.82332 35.333 7.44492 35.19 7.08492C34.302 5.00002 33.431 2.93342 32.378 0.459923V0.459943V0.459923Z" fill="url(#paint0_linear)"/>
<defs>
<linearGradient id="paint0_linear" x1="32.3994" y1="10.6321" x2="21.5814" y2="29.273" gradientUnits="userSpaceOnUse">
<stop stop-color="white" stop-opacity="0"/>
<stop offset="1" stop-color="white" stop-opacity="0.27451"/>
</linearGradient>
</defs>
</svg>
